<svg width="139" height="45" viewBox="0 0 139 45" fill="none" xmlns="http://www.w3.org/2000/svg">
<g clip-path="url(#clip0_62_3242)">
<mask id="mask0_62_3242" style="mask-type:luminance" maskUnits="userSpaceOnUse" x="0" y="0" width="139" height="45">
<path d="M139 0H0V45H139V0Z" fill="white"/>
</mask>
<g mask="url(#mask0_62_3242)">
<path d="M129.528 39.1087C131.321 39.0541 132.297 38.2621 132.297 36.3074V35.5739H126.887C125.571 35.5739 125.071 35.0941 125.071 33.8065V30.4629H137.183C138.499 30.4629 139 30.9468 139 32.2342V35.6481C139 43.3106 134.17 44.7464 128.544 44.9492C126.579 45.0156 123.883 44.996 121.849 44.9492C114.747 44.7853 111.385 41.4379 111.134 34.025C111.086 32.6322 111.086 31.0638 111.134 29.7334C111.41 22.3478 114.735 18.9613 121.849 18.8092C123.883 18.7623 126.579 18.7429 128.544 18.8092C133.746 18.9964 138.915 20.4712 138.619 27.8294H133.782C132.442 27.8294 132.182 27.0491 131.926 26.2337C131.638 25.3403 131.165 24.6731 129.524 24.638C127.384 24.5834 124.835 24.5911 122.102 24.638C118.832 24.7044 117.952 26.3547 117.807 29.2184C117.752 30.3889 117.7 32.2186 117.807 34.5166C117.948 37.4076 118.832 39.0385 122.102 39.1048C124.835 39.1555 127.388 39.175 129.528 39.1048" fill="#C2CDE7"/>
<path d="M97.3399 39.1087C99.1324 39.0541 100.109 38.2621 100.109 36.3074V35.5739H94.699C93.3862 35.5739 92.8829 35.0941 92.8829 33.8065V30.4629H104.999C106.311 30.4629 106.816 30.9468 106.816 32.2342V35.6481C106.816 43.3106 101.986 44.7464 96.356 44.9492C94.391 45.0156 91.6936 44.996 89.6652 44.9492C82.5626 44.7853 79.2014 41.4379 78.9493 34.025C78.9012 32.6322 78.9012 31.0638 78.9493 29.7334C79.2253 22.3478 82.5505 18.9613 89.6652 18.8092C91.6936 18.7623 94.391 18.7429 96.356 18.8092C101.578 18.9964 106.727 20.4712 106.436 27.8294H101.594C100.257 27.8294 99.9928 27.0491 99.7411 26.2103C99.4486 25.3168 98.9771 24.6848 97.3399 24.6497C95.2032 24.5951 92.6503 24.6028 89.9174 24.6497C86.6521 24.7161 85.7678 26.3664 85.6277 29.2301C85.5677 30.4006 85.5157 32.2303 85.6277 34.5283C85.7638 37.4193 86.6521 39.0502 89.9174 39.1165C92.6503 39.1672 95.2032 39.1867 97.3445 39.1165" fill="#C2CDE7"/>
<path d="M54.1561 34.5401C54.2922 37.4272 55.1805 39.0581 58.4497 39.1205C61.1788 39.1751 63.7317 39.1908 65.8725 39.1205C67.5091 39.0737 68.0293 38.27 68.3174 37.3726C68.5895 36.5533 68.8936 35.6365 70.2261 35.6365H75.3601C75.6601 43.0844 70.5182 44.7465 64.8881 44.9493C62.9234 45.0235 60.2264 44.9962 58.1976 44.9493C51.0949 44.7894 47.7338 41.438 47.4817 34.0251C47.4336 32.6323 47.4296 31.0678 47.4817 29.7335C47.7577 22.344 51.0829 18.9614 58.1976 18.8093C60.2264 18.7624 62.9234 18.7351 64.8881 18.8093C70.1141 18.9965 75.264 20.4713 74.9679 27.8217H70.1301C68.7896 27.8217 68.5295 27.0414 68.2734 26.2338C67.9853 25.3404 67.5091 24.6732 65.8725 24.6381C63.7317 24.5757 61.1788 24.5913 58.4497 24.6381C55.1805 24.7044 54.3002 26.3625 54.1561 29.2185C54.0961 30.3889 54.0481 32.2266 54.1561 34.5284" fill="#C2CDE7"/>
<path d="M36.8504 31.3448C37.1305 31.8597 37.4186 32.3708 37.7068 32.8741C37.9949 33.3774 38.291 33.8729 38.5871 34.3606C38.8832 34.8483 39.1793 35.3399 39.4834 35.8159C39.7875 36.2919 40.0876 36.7561 40.3958 37.2126C40.7038 37.6691 41.004 38.1217 41.3161 38.5586C41.6282 38.9956 41.9283 39.4286 42.2365 39.8462C41.2101 37.2122 40.4072 34.5007 39.8356 31.7388C39.1935 28.7675 38.8265 25.746 38.7391 22.7107C38.6671 19.6207 38.9792 16.7375 39.8075 14.4512C40.2321 13.1733 40.9507 12.007 41.9083 11.0413C42.6751 10.3036 43.6004 9.74124 44.6174 9.39483C46.7302 8.68477 49.155 8.91105 51.5559 9.64449C53.9739 10.4301 56.2645 11.5481 58.3585 12.9647C57.2923 11.6698 56.1171 10.4639 54.8451 9.35973C53.3994 8.09805 51.8746 6.92533 50.2795 5.84836C48.6491 4.73513 46.9462 3.72642 45.1815 2.8286C43.5285 1.9824 41.8009 1.28253 40.0196 0.73739C38.5164 0.260775 36.9466 0.0133651 35.3659 0.00390638C34.0618 -0.0137853 32.7826 0.35342 31.6965 1.05731C31.3747 1.28378 31.0806 1.54561 30.8202 1.83762C30.2598 2.48884 29.8406 3.24402 29.5877 4.05758C29.1716 5.45005 28.9985 6.9008 29.0755 8.34924C29.1481 10.1039 29.3839 11.8485 29.7798 13.5617C30.2212 15.523 30.7798 17.4575 31.4524 19.3554C32.1447 21.3413 32.965 23.3739 33.8773 25.3988C34.7897 27.4237 35.79 29.4134 36.8504 31.3448Z" fill="#C2CDE7"/>
<path d="M21.4152 35.7689C18.9783 33.8182 16.9495 31.6841 15.7251 29.5734C15.0084 28.4217 14.5755 27.1235 14.4606 25.7811C14.3949 24.7358 14.57 23.6893 14.9727 22.7184C15.0008 22.6482 15.0408 22.5819 15.0729 22.5117C14.0582 21.1319 13.1666 19.67 12.4078 18.142C12.2798 17.8767 12.1638 17.6192 12.0556 17.3617C11.4435 17.5646 10.8353 17.7791 10.247 18.0093C8.50959 18.6681 6.8357 19.4763 5.24515 20.4244C3.88176 21.2189 2.65331 22.2153 1.60378 23.3778C0.728114 24.3223 0.169611 25.5053 0.00318461 26.7682C-0.0346155 27.1581 -0.025214 27.551 0.0311951 27.9387C0.179314 28.7729 0.496256 29.5699 0.963548 30.2834C1.76945 31.4996 2.77842 32.5757 3.94866 33.4671C5.35338 34.566 6.85897 35.5364 8.44634 36.3659C10.2546 37.326 12.1184 38.1833 14.0284 38.9331C16.0291 39.7134 18.1339 40.4547 20.2988 41.1062C22.4636 41.7578 24.6644 42.3353 26.8612 42.819C27.4455 42.9517 28.0257 43.0726 28.6099 43.2092C29.1941 43.3457 29.7623 43.4354 30.3385 43.5408C30.9148 43.6461 31.4829 43.7398 32.0512 43.8295C32.6194 43.9193 33.1796 44.0051 33.7358 44.0792C34.292 44.1533 34.8402 44.2235 35.3804 44.286C35.9206 44.3484 36.4609 44.3991 36.981 44.4459C34.2682 43.4784 31.6423 42.2936 29.1301 40.9034C26.4078 39.4177 23.826 37.6995 21.4152 35.7689Z" fill="#C2CDE7"/>
<path d="M28.4746 26.9516C27.1501 24.1465 26.2578 21.3842 26.0737 18.9692C25.939 17.633 26.1225 16.2845 26.6099 15.0287C26.9613 14.1938 27.4733 13.4323 28.1185 12.7853C27.8358 11.333 27.6672 9.86172 27.6143 8.3844C27.5945 7.7049 27.6159 7.02486 27.6783 6.34782C27.2062 6.301 26.7339 6.26199 26.2698 6.23467C24.4118 6.09774 22.5451 6.12255 20.6917 6.3088C19.1094 6.45273 17.5596 6.83575 16.098 7.44414C14.8938 7.93397 13.8698 8.76774 13.1609 9.83581C12.9578 10.1672 12.7952 10.5208 12.6767 10.8892C12.4288 11.7034 12.3539 12.5583 12.4566 13.4018C12.6414 14.8383 13.0743 16.2339 13.7371 17.5295C14.5198 19.1103 15.448 20.6185 16.5102 22.0358C17.7162 23.669 19.0189 25.2322 20.4116 26.7176C21.8601 28.2782 23.4447 29.8115 25.1054 31.3136C26.766 32.8157 28.5026 34.2553 30.2673 35.6052C30.7354 35.9642 31.2077 36.3231 31.6798 36.6664C32.152 37.0098 32.6242 37.3609 33.0923 37.6925C33.5605 38.0242 34.0407 38.3558 34.5129 38.6757C34.985 38.9956 35.4532 39.3077 35.9214 39.6043C36.3895 39.9008 36.8538 40.2051 37.3139 40.486C37.7741 40.7669 38.2342 41.0439 38.6904 41.3053C36.6725 39.2899 34.8283 37.116 33.1764 34.8054C31.3725 32.3292 29.7989 29.7009 28.4746 26.9516Z" fill="#C2CDE7"/>
</g>
</g>
<defs>
<clipPath id="clip0_62_3242">
<rect width="139" height="45" fill="white"/>
</clipPath>
</defs>
</svg>
