<svg width="394" height="125" viewBox="0 0 394 125" fill="none" xmlns="http://www.w3.org/2000/svg">
<g clip-path="url(#clip0_1_24)">
<path d="M335.549 0.548016C333.847 0.405842 332.971 0.350952 331.29 0.350952C334.301 0.439517 337.333 0.771247 340.365 1.37363C372.513 7.62192 393.089 40.0008 386.334 73.7004C379.573 107.386 348.036 129.637 315.888 123.396C314.458 123.112 313.047 122.78 311.663 122.395C317.129 124.08 323.003 125 329.196 125C335.394 125 340.19 124.161 344.767 123.132C364.62 118.631 380.693 104.712 388.716 87.2795C392.121 79.6581 394 71.236 394 62.4024C393.999 27.9046 366.931 3.20822 335.549 0.548016Z" fill="#B7C1D9"/>
<path d="M261.972 57.7355C259.604 91.6309 285.866 121.14 321.676 124.206C319.763 124.037 317.83 123.767 315.883 123.394C283.735 117.153 263.159 84.759 269.914 51.0606C276.628 17.598 307.786 -4.5716 339.702 1.24392C337.022 0.728845 334.303 0.363429 331.522 0.166377C295.09 -2.32421 264.345 23.4409 261.972 57.7355Z" fill="#B7C1D9"/>
<path d="M340.365 1.37116C308.217 -4.88462 276.673 17.3673 269.911 51.0594C263.157 84.7653 283.733 117.152 315.881 123.392C348.035 129.634 379.578 107.389 386.334 73.6967C393.089 40.0045 372.519 7.61696 340.365 1.37116ZM326.786 119.181C295.588 119.181 270.311 93.9369 270.311 62.7965C270.311 31.6698 295.588 6.43963 326.786 6.43963C357.971 6.43963 383.262 31.6698 383.262 62.7965C383.262 93.9382 357.971 119.181 326.786 119.181Z" fill="#B7C1D9"/>
<path d="M358.147 35.935H338.818C335.278 35.935 334.788 37.3705 334.788 39.5368C334.788 39.5368 334.796 70.9005 334.796 70.9404C334.552 78.1303 331.879 80.4326 326.745 80.4326C321.49 80.4326 318.803 78.0081 318.695 70.3592V39.5381C318.695 37.3718 318.186 35.9363 314.653 35.9363H295.317V73.2851C295.317 81.55 296.918 85.0434 300.342 88.5903C305.64 94.1077 314.91 96.43 326.745 96.43C338.58 96.43 347.858 94.1077 353.168 88.5903C356.579 85.0434 358.194 81.55 358.194 73.2851L358.147 35.935Z" fill="#B7C1D9"/>
<path d="M30.1268 74.5744C30.1268 69.7308 28.2738 65.7842 22.0571 62.4355L14.4059 58.3095C11.178 56.5754 10.4009 55.798 10.4009 54.1237C10.4009 51.971 11.6562 50.9544 15.0634 50.9544C19.1281 50.9544 26.0621 51.4926 27.7358 51.6122C27.7956 51.6122 27.8553 51.6122 27.8553 51.6122C28.6324 51.6122 28.8715 51.1338 28.8715 50.5956V44.5561C28.8715 43.8983 28.4531 43.5993 27.9749 43.4797C25.7034 42.8817 19.6661 42.1642 15.3025 42.1642C3.70608 42.1642 0 47.2469 0 53.8247C0 58.1899 1.49439 61.9572 7.0535 65.246L15.3025 70.1494C18.4108 72.0031 19.2477 72.9599 19.2477 74.694C19.2477 77.5643 18.0522 78.8799 13.9277 78.8799C11.5964 78.8799 5.02113 78.4015 2.57034 78.1623C2.51057 78.1623 2.45079 78.1623 2.39102 78.1623C1.79326 78.1623 1.31506 78.4613 1.31506 79.2985V85.1586C1.31506 85.8164 1.91281 86.1752 2.51057 86.3546C5.55911 87.1319 9.08586 87.6701 13.8081 87.6701C25.9425 87.6701 30.1268 80.913 30.1268 74.5744Z" fill="#B7C1D9"/>
<path d="M66.1191 53.9443C66.1191 53.3463 65.5811 52.8679 64.9833 52.8679H57.0332C56.3757 52.8679 55.8975 53.4061 55.7779 54.0041L50.2188 77.6241C50.2188 77.6241 50.159 77.6241 49.9797 77.6241C49.9199 77.6241 49.8602 77.6241 49.7406 77.6241H49.6808C49.3222 77.6241 49.1429 77.3251 48.9635 76.488L43.5837 54.0041C43.4642 53.4061 43.0458 52.8679 42.448 52.8679H34.4979C33.661 52.8679 33.3024 53.2267 33.3024 53.8247C33.3024 53.9443 33.3024 54.0639 33.3621 54.2433L41.2525 81.1522C42.7469 86.3546 44.5999 86.7133 46.8116 86.7133H47.7082L47.1703 88.5671C46.453 90.959 45.377 91.6765 43.2251 91.6765C41.2525 91.6765 37.7257 91.3178 35.7532 91.1982C35.6934 91.1982 35.6934 91.1982 35.6336 91.1982C34.9761 91.1982 34.4381 91.6765 34.4381 92.3343V97.1779C34.4381 97.8357 35.0359 98.0151 35.6934 98.2543C37.1878 98.7327 40.7145 99.211 42.9262 99.211C51.7132 99.211 54.164 95.9222 56.017 89.464L66.0593 54.2433C66.0593 54.1237 66.1191 54.0639 66.1191 53.9443Z" fill="#B7C1D9"/>
<path d="M94.9785 77.6241C94.9785 74.395 93.9025 71.2856 88.9411 68.4153L81.529 64.1697C80.3335 63.4521 79.6759 62.9737 79.6759 62.0767C79.6759 60.7014 80.5128 60.3426 82.844 60.3426C85.8926 60.3426 91.0333 60.8808 92.7668 61.12C92.8265 61.12 92.8863 61.12 92.9461 61.12C93.5438 61.12 93.9623 60.7014 93.9623 59.9838V55.1402C93.9623 54.4226 93.5438 53.9443 92.8265 53.7649C89.778 52.9875 86.9088 52.3895 82.1865 52.3895C73.9375 52.3895 69.9326 55.6186 69.9326 61.6582C69.9326 65.545 71.9051 68.5947 75.2526 70.5082L83.0234 74.993C84.6971 75.9498 85.2351 76.6075 85.2351 77.5045C85.2351 79.0592 84.5775 79.8366 81.7083 79.8366C79.7955 79.8366 74.7744 79.418 71.5465 78.9995C71.4867 78.9995 71.3672 78.9995 71.3074 78.9995C70.5901 78.9995 70.1717 79.5376 70.1717 80.1356V84.9792C70.1717 85.6968 70.5901 86.1752 71.3074 86.3546C74.3559 87.1917 78.8989 87.6701 82.1865 87.6701C90.9137 87.6701 94.9785 83.2451 94.9785 77.6241Z" fill="#B7C1D9"/>
<path d="M120.505 85.9958V81.3316C120.505 80.6738 120.027 80.315 119.25 80.315H116.321C114.528 80.315 114.348 79.8964 114.348 77.5045V60.1034H119.25C119.908 60.1034 120.446 59.5653 120.446 58.9075V54.0639C120.446 53.4061 119.908 52.8679 119.25 52.8679H114.348V46.5294C114.348 45.9314 113.87 45.5128 113.273 45.5128C113.213 45.5128 113.153 45.5128 113.093 45.5128L105.801 46.7686C105.143 46.8882 104.605 47.3067 104.605 47.9645V52.8679H99.8231C99.1655 52.8679 98.5678 53.4659 98.5678 54.1237V58.0703C98.5678 58.7281 99.1655 59.2065 99.8231 59.3261L104.605 60.1034V77.4447C104.605 85.936 108.072 87.6701 114.647 87.6701C116.381 87.6701 117.576 87.4907 119.37 87.1917C120.087 87.0721 120.505 86.5938 120.505 85.9958Z" fill="#B7C1D9"/>
<path d="M154.988 71.5846V68.1163C154.988 59.0869 150.027 52.3895 140.224 52.3895C130.719 52.3895 125.101 58.4889 125.101 68.1163V72.3021C125.101 83.8431 132.871 87.6701 140.104 87.6701C145.305 87.6701 148.533 87.1917 152.358 86.235C153.374 85.9958 153.613 85.5772 153.613 84.6204V80.0758C153.613 79.418 153.135 79.1191 152.478 79.1191C152.418 79.1191 152.358 79.1191 152.298 79.1191C149.907 79.3583 144.587 79.6572 140.822 79.6572C136.099 79.6572 134.665 76.5478 134.665 73.1393V73.0197H153.733C154.51 73.0197 154.988 72.4815 154.988 71.5846ZM145.544 67.0399H134.665V66.8008C134.665 62.4355 136.876 60.1632 140.164 60.1632C143.511 60.1632 145.544 62.3757 145.544 66.8008V67.0399ZM146.739 49.0409C146.739 48.8615 146.68 48.6821 146.5 48.4429L141.001 41.4466C140.463 40.7888 140.224 40.5496 139.387 40.5496H131.497C131.078 40.5496 130.839 40.729 130.839 40.9682C130.839 41.0878 130.899 41.2672 131.078 41.4466L138.371 48.7419C138.849 49.2203 139.028 49.4595 139.805 49.4595H146.201C146.56 49.4595 146.739 49.2801 146.739 49.0409Z" fill="#B7C1D9"/>
<path d="M206.386 85.8762V65.4852C206.386 57.6517 203.995 52.3895 196.104 52.3895C192.219 52.3895 189.828 53.3463 186.361 55.3196C184.687 53.2865 182.476 52.3895 179.308 52.3895C175.841 52.3895 172.971 53.7051 170.461 55.3794V54.0639C170.461 53.4061 169.923 52.8679 169.265 52.8679H162.451C161.793 52.8679 161.255 53.4061 161.255 54.0639V85.8762C161.255 86.5339 161.853 87.1319 162.511 87.1319H169.743C170.401 87.1319 170.939 86.5339 170.939 85.8762V62.0767C172.792 61.12 174.346 60.522 175.482 60.522C178.232 60.522 178.949 61.6582 178.949 65.4852V85.8762C178.949 86.5339 179.547 87.1319 180.204 87.1319H187.437C188.095 87.1319 188.633 86.5339 188.633 85.8762V65.4852C188.633 64.1697 188.573 62.7943 188.453 61.5984C190.246 60.7612 192.04 60.522 193.056 60.522C195.806 60.522 196.702 61.6582 196.702 65.4852V85.8762C196.702 86.5339 197.24 87.1319 197.898 87.1319H205.131C205.788 87.1319 206.386 86.5339 206.386 85.8762Z" fill="#B7C1D9"/>
<path d="M242.55 71.5845V68.1163C242.55 59.0869 237.589 52.3895 227.785 52.3895C218.281 52.3895 212.662 58.4889 212.662 68.1163V72.3021C212.662 83.8431 220.433 87.6701 227.666 87.6701C232.866 87.6701 236.094 87.1917 239.92 86.235C240.936 85.9958 241.175 85.5772 241.175 84.6204V80.0758C241.175 79.418 240.697 79.119 240.039 79.119C239.98 79.119 239.92 79.119 239.86 79.119C237.469 79.3582 232.149 79.6572 228.383 79.6572C223.661 79.6572 222.226 76.5477 222.226 73.1393V73.0197H241.295C242.072 73.0197 242.55 72.4815 242.55 71.5845ZM233.105 67.0399H222.226V66.8007C222.226 62.4355 224.438 60.1632 227.726 60.1632C231.073 60.1632 233.105 62.3757 233.105 66.8007V67.0399Z" fill="#B7C1D9"/>
</g>
<defs>
<clipPath id="clip0_1_24">
<rect width="394" height="125" fill="white"/>
</clipPath>
</defs>
</svg>
