<svg width="461" height="60" viewBox="0 0 461 60" fill="none" xmlns="http://www.w3.org/2000/svg">
<g clip-path="url(#clip0_27_47147)">
<path d="M447.481 58.9999V0.679932H460.921V58.9999H447.481Z" fill="#B7C1D9"/>
<path d="M428.922 10.5999V0.679932H442.362V10.5999H428.922ZM428.922 58.9999V16.1199H442.362V58.9999H428.922Z" fill="#B7C1D9"/>
<path d="M395.971 59.7999C391.757 59.7999 388.051 58.8932 384.851 57.0799C381.704 55.2666 379.251 52.7066 377.491 49.3999C375.731 46.0399 374.851 42.0932 374.851 37.5599C374.851 33.0266 375.731 29.1066 377.491 25.7999C379.304 22.4932 381.784 19.9332 384.931 18.1199C388.077 16.3066 391.757 15.3999 395.971 15.3999C400.077 15.3999 403.464 16.0932 406.131 17.4799C408.797 18.8666 410.771 20.6532 412.051 22.8399H412.611L413.011 16.1199H425.811V58.9999H412.291V52.1199H411.731C410.397 54.4666 408.317 56.3332 405.491 57.7199C402.664 59.1066 399.491 59.7999 395.971 59.7999ZM400.131 49.5599C403.917 49.5599 406.877 48.4932 409.011 46.3599C411.144 44.2266 412.211 41.6132 412.211 38.5199V36.4399C412.211 33.3999 411.144 30.8399 409.011 28.7599C406.877 26.6799 403.917 25.6399 400.131 25.6399C396.664 25.6399 393.837 26.6799 391.651 28.7599C389.517 30.7866 388.451 33.7199 388.451 37.5599C388.451 41.3466 389.517 44.3066 391.651 46.4399C393.784 48.5199 396.611 49.5599 400.131 49.5599Z" fill="#B7C1D9"/>
<path d="M301.898 58.9999V0.679932H322.778L337.178 42.0399H337.658L351.898 0.679932H372.778V58.9999H359.818V35.9599L359.978 14.5999H359.338L343.498 58.9999H331.258L315.498 14.5999H314.778L315.018 36.1199V58.9999H301.898Z" fill="#B7C1D9"/>
<path d="M259.997 59V16.12H272.157L272.637 22.92H273.197C274.05 20.6266 275.49 18.8133 277.517 17.48C279.597 16.1466 282.05 15.48 284.877 15.48C286.317 15.48 287.49 15.56 288.397 15.72V27.8C287.81 27.6933 287.17 27.6133 286.477 27.56C285.784 27.5066 285.143 27.48 284.557 27.48C281.09 27.48 278.397 28.36 276.477 30.12C274.557 31.8266 273.543 34.6533 273.437 38.6V59H259.997Z" fill="#B7C1D9"/>
<path d="M234.029 59.7201C228.803 59.7201 224.269 58.8668 220.429 57.1601C216.589 55.4001 213.603 52.8934 211.469 49.6401C209.336 46.3334 208.269 42.3868 208.269 37.8001C208.269 33.1068 209.336 29.0801 211.469 25.7201C213.603 22.3601 216.589 19.8001 220.429 18.0401C224.269 16.2268 228.749 15.3201 233.869 15.3201C239.309 15.3201 243.923 16.3334 247.709 18.3601C251.549 20.3334 254.403 23.1868 256.269 26.9201C258.189 30.6534 258.963 35.1601 258.589 40.4401H221.789C221.843 43.6401 222.989 46.1468 225.229 47.9601C227.469 49.7734 230.509 50.6801 234.349 50.6801C237.229 50.6801 239.709 50.2001 241.789 49.2401C243.869 48.2268 245.203 46.9201 245.789 45.3201H258.509C258.136 48.2001 256.829 50.7334 254.589 52.9201C252.403 55.0534 249.523 56.7334 245.949 57.9601C242.429 59.1334 238.456 59.7201 234.029 59.7201ZM233.789 24.4401C230.429 24.4401 227.683 25.1868 225.549 26.6801C223.416 28.1734 222.109 30.2801 221.629 33.0001H245.229C244.963 30.3334 243.869 28.2534 241.949 26.7601C240.029 25.2134 237.309 24.4401 233.789 24.4401Z" fill="#B7C1D9"/>
<path d="M164.362 58.9999V0.679932H177.802V33.3999L183.082 28.5199L197.722 16.1199H214.762L194.522 33.0799L215.322 58.9999H198.602L187.562 44.8399L184.762 40.9999L177.802 46.7599V58.9999H164.362Z" fill="#B7C1D9"/>
<path d="M112.678 59.0001V16.1201H125.638L126.118 23.5601H126.838C128.225 20.9468 130.385 18.9201 133.318 17.4801C136.251 16.0401 139.345 15.3201 142.598 15.3201C146.278 15.3201 149.505 15.9601 152.278 17.2401C155.105 18.4668 157.291 20.5468 158.838 23.4801C160.438 26.4134 161.238 30.4134 161.238 35.4801V59.0001H147.798V37.8001C147.798 33.9068 147.051 30.8934 145.558 28.7601C144.118 26.6268 141.585 25.5601 137.958 25.5601C134.385 25.5601 131.505 26.7068 129.318 29.0001C127.185 31.2401 126.118 34.1201 126.118 37.6401V59.0001H112.678Z" fill="#B7C1D9"/>
<path d="M96.0718 10.5999V0.679932H109.512V10.5999H96.0718ZM96.0718 58.9999V16.1199H109.512V58.9999H96.0718Z" fill="#B7C1D9"/>
<path d="M52.6075 58.9999V0.679932H66.5275V47.5599H95.7275V58.9999H52.6075Z" fill="#B7C1D9"/>
<path d="M25.9199 59.7201C20.6932 59.7201 16.1599 58.8668 12.3199 57.1601C8.47991 55.4001 5.49325 52.8934 3.35991 49.6401C1.22658 46.3334 0.159912 42.3868 0.159912 37.8001C0.159912 33.1068 1.22658 29.0801 3.35991 25.7201C5.49325 22.3601 8.47991 19.8001 12.3199 18.0401C16.1599 16.2268 20.6399 15.3201 25.7599 15.3201C31.1999 15.3201 35.8132 16.3334 39.5999 18.3601C43.4399 20.3334 46.2932 23.1868 48.1599 26.9201C50.0799 30.6534 50.8532 35.1601 50.4799 40.4401H13.6799C13.7332 43.6401 14.8799 46.1468 17.1199 47.9601C19.3599 49.7734 22.3999 50.6801 26.2399 50.6801C29.1199 50.6801 31.5999 50.2001 33.6799 49.2401C35.7599 48.2268 37.0932 46.9201 37.6799 45.3201H50.3999C50.0265 48.2001 48.7199 50.7334 46.4799 52.9201C44.2932 55.0534 41.4132 56.7334 37.8399 57.9601C34.3199 59.1334 30.3465 59.7201 25.9199 59.7201ZM25.6799 24.4401C22.3199 24.4401 19.5732 25.1868 17.4399 26.6801C15.3065 28.1734 13.9999 30.2801 13.5199 33.0001H37.1199C36.8532 30.3334 35.7599 28.2534 33.8399 26.7601C31.9199 25.2134 29.1999 24.4401 25.6799 24.4401Z" fill="#B7C1D9"/>
</g>
<defs>
<clipPath id="clip0_27_47147">
<rect width="461" height="60" fill="white"/>
</clipPath>
</defs>
</svg>
