<svg width="166" height="48" viewBox="0 0 166 48" fill="none" xmlns="http://www.w3.org/2000/svg">
<g clip-path="url(#clip0_6035_8549)">
<mask id="mask0_6035_8549" style="mask-type:luminance" maskUnits="userSpaceOnUse" x="0" y="0" width="166" height="48">
<path d="M165.595 0H0.594727V48H165.595V0Z" fill="white"/>
</mask>
<g mask="url(#mask0_6035_8549)">
<path d="M39.2335 0.787109H0.594727V39.137H39.2335V0.787109ZM37.4732 12.8324V27.0783C36.6555 24.606 35.5932 22.2201 34.302 19.9554C35.5932 17.6906 36.6555 15.3047 37.4732 12.8324ZM27.0939 37.4016H12.7365C15.2287 36.5916 17.6334 35.5375 19.9152 34.255C22.1966 35.5384 24.6014 36.5925 27.0939 37.4016ZM19.9152 5.67142C17.6332 4.39 15.2285 3.33669 12.7365 2.52704H27.0939C24.6018 3.33628 22.1971 4.3896 19.9152 5.67142ZM33.148 18.0835C30.2058 13.5809 26.3396 9.74468 21.8018 6.82541C26.5899 4.32294 31.8828 2.91827 37.2906 2.71489C37.0857 8.08073 35.67 13.3326 33.148 18.0835ZM32.0571 19.9554C29.0344 24.8733 24.8717 29.0038 19.9152 32.0029C14.9576 29.0045 10.7939 24.8739 7.77118 19.9554C10.7946 15.0373 14.9581 10.9069 19.9152 7.90783C24.8717 10.907 29.0344 15.0374 32.0571 19.9554ZM6.68029 18.0835C4.15823 13.3326 2.74256 8.08073 2.5376 2.71489C7.94543 2.91827 13.2383 4.32294 18.0264 6.82541C13.4896 9.74589 9.62363 13.5819 6.68029 18.0835ZM6.68029 21.8295C9.62202 26.3355 13.4881 30.1754 18.0264 33.0987C13.2375 35.5975 7.94458 36.9983 2.5376 37.1981C2.74256 31.8322 4.15823 26.5804 6.68029 21.8295ZM33.148 21.8295C35.67 26.5804 37.0857 31.8322 37.2906 37.1981C31.8838 36.9972 26.5911 35.5964 21.8018 33.0987C26.3405 30.176 30.2068 26.3359 33.148 21.8295ZM5.49248 19.9554C4.19989 22.2194 3.13757 24.6055 2.32122 27.0783V12.8324C3.13896 15.3047 4.20122 17.6906 5.49248 19.9554Z" fill="#B7C1D9"/>
<path d="M49.9258 39.137H59.8723V0.787109H49.9258V39.137Z" fill="#B7C1D9"/>
<path d="M155.641 39.1371H165.595V8.86512C165.595 1.07348 162.631 0 159.43 0C157.032 0 154.988 0.894563 152.824 2.90733L151.33 4.29614V0.787215H142.327V39.1371H152.283V11.3833C152.283 9.62102 153.57 9.48236 153.962 9.48236C154.354 9.48236 155.644 9.62102 155.644 11.3833L155.641 39.1371Z" fill="#B7C1D9"/>
<path d="M136.641 4.01211C134.865 1.27475 132.07 0 127.846 0C123.503 0 120.604 1.29712 118.724 4.08368C116.795 6.94404 115.896 11.3632 115.896 17.9897V21.9168C115.896 28.626 116.748 33.0765 118.578 35.8943C120.354 38.6317 123.146 39.9064 127.368 39.9064C131.711 39.9064 134.612 38.6071 136.492 35.8205C138.423 32.9602 139.323 28.5433 139.323 21.9168V17.9897C139.323 11.2715 138.469 6.82999 136.641 4.01211ZM128.991 29.4065C128.991 30.7484 128.238 31.0369 127.607 31.0369C126.976 31.0369 126.223 30.7551 126.223 29.4065V10.5111C126.223 9.16927 126.976 8.87853 127.607 8.87853C128.238 8.87853 128.991 9.16256 128.991 10.5111V29.4065Z" fill="#B7C1D9"/>
<path d="M79.82 0C77.6021 0 75.6074 0.9214 73.5451 2.90733L72.044 4.35205V0.787215H63.0283V48H72.9906V36.5272L74.5233 38.1442C75.0509 38.7219 75.6986 39.1792 76.4215 39.4846C77.1445 39.79 77.9256 39.9362 78.7111 39.9132C83.8027 39.9132 86.3744 35.1832 86.3744 25.8551V14.0581C86.3834 1.45814 82.6374 0 79.82 0ZM75.6931 29.4065C75.6931 30.7484 74.9403 31.0369 74.3092 31.0369C73.6781 31.0369 72.9253 30.7551 72.9253 29.4065V10.5111C72.9253 9.16927 73.6781 8.87854 74.3092 8.87854C74.9403 8.87854 75.6931 9.16256 75.6931 10.5111V29.4065Z" fill="#B7C1D9"/>
<path d="M106.329 0C104.111 0 102.116 0.9214 100.054 2.90733L98.548 4.35876V0.780506H89.5459V48H99.4991V36.5272L101.034 38.1442C101.562 38.7219 102.21 39.1792 102.933 39.4846C103.656 39.79 104.437 39.9362 105.222 39.9132C110.311 39.9132 112.885 35.1832 112.885 25.8551V14.0581C112.892 1.45814 109.146 0 106.329 0ZM102.202 29.4065C102.202 30.7484 101.449 31.0369 100.818 31.0369C100.187 31.0369 99.4338 30.7551 99.4338 29.4065V10.5111C99.4338 9.16927 100.187 8.87854 100.818 8.87854C101.449 8.87854 102.202 9.16927 102.202 10.5111V29.4065Z" fill="#B7C1D9"/>
</g>
</g>
<defs>
<clipPath id="clip0_6035_8549">
<rect width="166" height="48" fill="white"/>
</clipPath>
</defs>
</svg>
