<svg width="141" height="37" viewBox="0 0 141 37" fill="none" xmlns="http://www.w3.org/2000/svg">
<path d="M140.312 0H115.051L104.592 10.4692C104.406 10.6547 104.3 10.9198 104.3 11.2113V17.2013H110.47V11.1583C110.47 10.9993 110.602 10.8668 110.761 10.8668H114.124C114.283 10.8668 114.415 10.9993 114.415 11.1583V17.1748H120.399C120.558 17.1748 120.691 17.3073 120.691 17.4663V20.8324C120.691 20.9914 120.558 21.1239 120.399 21.1239H114.415V27.1404C114.415 27.2994 114.283 27.4319 114.124 27.4319H110.761C110.602 27.4319 110.47 27.2994 110.47 27.1404V21.1504H104.3V35.7013C104.3 36.2844 104.777 36.735 105.333 36.735H129.826C130.091 36.735 130.355 36.6289 130.567 36.4434L141 25.9742V0.689112C141 0.318052 140.709 0 140.312 0ZM135.81 27.4585H131.785C131.706 27.4585 131.626 27.4319 131.574 27.3524L127.814 22.2636L124.054 27.3524C124.001 27.4319 123.921 27.4585 123.842 27.4585H119.87C119.632 27.4585 119.499 27.1934 119.658 27.0079L125.377 19.2686C125.457 19.1626 125.457 19.0301 125.377 18.9241L119.605 11.1318C119.526 11.0258 119.605 10.8668 119.737 10.8668H123.948C124.027 10.8668 124.133 10.9198 124.159 10.9728L127.814 15.9026L131.441 10.9463C131.494 10.8668 131.574 10.8403 131.653 10.8403H135.89C136.022 10.8403 136.101 10.9993 136.022 11.1053L130.276 18.9506C130.197 19.0301 130.197 19.1626 130.276 19.2686L136.022 27.0609C136.154 27.1934 136.022 27.4585 135.81 27.4585Z" fill="#C2CDE7"/>
<path d="M74.8028 25.2586H72.8169C72.7639 25.2586 72.7375 25.3116 72.7375 25.3381V36.6555C72.7375 36.7085 72.7639 36.735 72.8169 36.735H74.8028C74.8558 36.735 74.8822 36.7085 74.8822 36.6555V25.3381C74.8822 25.2851 74.8558 25.2586 74.8028 25.2586Z" fill="#C2CDE7"/>
<path d="M17.2642 25.0201C13.9014 25.0201 11.2535 27.644 11.2535 31.0101C11.2535 34.3761 13.9014 37 17.2642 37C20.6535 36.9735 23.3014 34.3496 23.3014 31.0101C23.3014 27.644 20.6535 25.0201 17.2642 25.0201ZM21.0772 31.0101C21.0772 33.2364 19.409 35.0122 17.2642 35.0122C15.1194 35.0122 13.4513 33.2629 13.4513 31.0101C13.4513 28.7837 15.1194 27.0079 17.2642 27.0079C19.409 27.0079 21.0772 28.7572 21.0772 31.0101Z" fill="#C2CDE7"/>
<path d="M30.4772 25.2586H25.4197C25.3932 25.2586 25.3668 25.2851 25.3668 25.3381V36.682C25.3668 36.7085 25.3932 36.735 25.4197 36.735H27.4586C27.4851 36.735 27.5115 36.7085 27.5115 36.682V33.5014H30.133C33.1251 33.5014 35.058 31.8317 35.058 29.2608C35.0845 26.8224 33.2839 25.2586 30.4772 25.2586ZM30.3977 31.5666H27.538V27.1934H30.3977C31.9335 27.1934 32.9662 28.0151 32.9662 29.2608C32.9662 30.639 31.9335 31.5666 30.3977 31.5666Z" fill="#C2CDE7"/>
<path d="M5.1369 25.2586H0.0529578C0.0264789 25.2586 0 25.2851 0 25.3381V36.682C0 36.7085 0.0264789 36.735 0.0529578 36.735H2.09183C2.11831 36.735 2.14479 36.7085 2.14479 36.682V33.5014H4.7662C7.75831 33.5014 9.69127 31.8317 9.69127 29.2608C9.74423 26.8224 7.91718 25.2586 5.1369 25.2586ZM5.03099 31.5666H2.17127V27.1934H5.03099C6.56676 27.1934 7.59944 28.0151 7.59944 29.2608C7.59944 30.639 6.56676 31.5666 5.03099 31.5666Z" fill="#C2CDE7"/>
<path d="M47.4237 25.2586H45.4113C45.3848 25.2586 45.3583 25.2851 45.3583 25.3381V31.5666C45.3583 33.634 44.1403 35.0122 42.3397 35.0122C40.5391 35.0122 39.3476 33.634 39.3476 31.5666V25.3116C39.3476 25.2851 39.3211 25.2321 39.2946 25.2321H37.2823C37.2558 25.2321 37.2293 25.2586 37.2293 25.3116V31.5401C37.2293 34.9062 39.1887 37 42.3662 37C45.5701 37 47.5561 34.9062 47.5561 31.5401V25.3116C47.4766 25.2851 47.4501 25.2586 47.4237 25.2586Z" fill="#C2CDE7"/>
<path d="M57.2473 34.8532H52.0839V25.3116C52.0839 25.2851 52.0575 25.2321 52.031 25.2321H49.9921C49.9656 25.2321 49.9392 25.2586 49.9392 25.3116V36.1254C49.9392 36.4699 50.2039 36.735 50.5482 36.735H56.5059C56.6913 36.735 56.8501 36.629 56.9031 36.4699L57.4592 35.1712C57.4592 35.1447 57.4856 35.1182 57.4856 35.0917C57.4856 34.9592 57.3797 34.8532 57.2473 34.8532Z" fill="#C2CDE7"/>
<path d="M65.8265 25.2321C65.8265 25.2056 65.8 25.2056 65.7735 25.2056H63.7346C63.7082 25.2056 63.6817 25.2321 63.6817 25.2321L58.7831 36.6555C58.7831 36.682 58.7831 36.7085 58.7831 36.7085C58.7831 36.735 58.8096 36.735 58.8361 36.735H60.9808C61.0073 36.735 61.0338 36.7085 61.0338 36.682L61.9341 34.4291H67.5211L68.4214 36.682C68.4214 36.7085 68.4479 36.735 68.4744 36.735H70.5927C70.6192 36.735 70.6456 36.735 70.6456 36.7085C70.6456 36.682 70.6721 36.6555 70.6456 36.6555L65.8265 25.2321ZM62.7284 32.5208L64.7408 27.538L66.7797 32.5208H62.7284Z" fill="#C2CDE7"/>
<path d="M85.0237 32.6533L85.209 32.5738C86.5859 31.9112 87.3538 30.6655 87.3538 29.1547C87.3538 26.8224 85.5268 25.2586 82.8259 25.2586H78.0332C78.0068 25.2586 77.9803 25.2851 77.9803 25.3381V36.682C77.9803 36.7085 78.0068 36.735 78.0332 36.735H80.0721C80.0986 36.735 80.1251 36.7085 80.1251 36.682V33.0774H82.773L85.3414 36.735C85.3414 36.7615 85.3679 36.7615 85.3944 36.7615H87.8039C87.8304 36.7615 87.8569 36.735 87.8569 36.735C87.8569 36.7085 87.8569 36.682 87.8569 36.6555L85.0237 32.6533ZM80.1251 27.1934H82.7465C84.1763 27.1934 85.209 28.0151 85.209 29.1547C85.209 30.2944 84.1763 31.1161 82.7465 31.1161H80.1251V27.1934Z" fill="#C2CDE7"/>
<path d="M32.9927 16.4592L32.8073 16.4062L32.9662 16.3266C33.6017 16.0086 34.3431 15.2135 34.3431 13.8087C34.3431 11.9799 32.9132 10.8668 30.5301 10.8668H25.4197C25.3932 10.8668 25.3668 10.8933 25.3668 10.9198V21.7335C25.3668 22.0781 25.6315 22.3431 25.9758 22.3431H30.7949C33.2575 22.3431 34.8727 21.1239 34.8727 19.2686C34.8727 17.5193 33.9459 16.8037 32.9927 16.4592ZM27.538 12.6956H30.2124C32.1454 12.6956 32.3572 13.7292 32.3572 14.1533C32.3572 15.134 31.5363 15.7701 30.2124 15.7701H27.538V12.6956ZM30.6361 20.5408H27.538V17.5458H30.7155C32.013 17.5458 32.7808 18.0759 32.7808 18.9506C32.7544 19.6927 32.1983 20.5408 30.6361 20.5408Z" fill="#C2CDE7"/>
<path d="M60.2659 22.2901V10.9198C60.2659 10.8933 60.2394 10.8668 60.213 10.8668H58.1741C58.1476 10.8668 58.1211 10.8933 58.1211 10.9198V18.553L51.6073 10.8933C51.6073 10.8668 51.5808 10.8668 51.5544 10.8668H50.0186C49.9921 10.8668 49.9656 10.8933 49.9656 10.9198V22.2901C49.9656 22.3166 49.9921 22.3431 50.0186 22.3431H52.0575C52.0839 22.3431 52.1104 22.3166 52.1104 22.2901V14.8689L58.5713 22.3431C58.5713 22.3696 58.5977 22.3696 58.6242 22.3696H60.213C60.2394 22.3431 60.2659 22.3166 60.2659 22.2901Z" fill="#C2CDE7"/>
<path d="M82.0845 22.6082C85.2884 22.6082 87.2744 20.5143 87.2744 17.1483V10.9198C87.2744 10.8933 87.2479 10.8668 87.2214 10.8668H85.209C85.1825 10.8668 85.1561 10.8933 85.1561 10.9198V17.1483C85.1561 19.2156 83.938 20.5938 82.111 20.5938C80.3104 20.5938 79.1189 19.2156 79.1189 17.1483V10.9198C79.1189 10.8933 79.0924 10.8668 79.0659 10.8668H77.0535C77.027 10.8668 77.0006 10.8933 77.0006 10.9198V17.1483C76.9476 20.5143 78.907 22.6082 82.0845 22.6082Z" fill="#C2CDE7"/>
<path d="M90.0282 25.2586C90.0017 25.2586 89.9752 25.2851 89.9752 25.3116V36.1254C89.9752 36.4699 90.24 36.735 90.5842 36.735H96.8862C97.0186 36.735 97.151 36.6555 97.2569 36.5494L98.2896 35.1712C98.3161 35.1447 98.3425 35.0917 98.3425 35.0387C98.3425 34.9062 98.2366 34.8002 98.1042 34.8002H92.173V32.0172H96.2772C96.3037 32.0172 96.3301 31.9907 96.3301 31.9642V30.1619C96.3301 30.1354 96.3037 30.1089 96.2772 30.1089H92.173V27.1669H97.8394C97.8659 27.1669 97.8924 27.1404 97.8924 27.1139V25.3116C97.8924 25.2851 97.8659 25.2586 97.8394 25.2586H90.0282Z" fill="#C2CDE7"/>
<path d="M90.0282 10.8668C90.0017 10.8668 89.9752 10.8933 89.9752 10.9198V21.7335C89.9752 22.0781 90.24 22.3431 90.5842 22.3431H96.8862C97.0186 22.3431 97.151 22.2636 97.2569 22.1576L98.2896 20.7794C98.3161 20.7529 98.3425 20.6999 98.3425 20.6468C98.3425 20.5143 98.2366 20.4083 98.1042 20.4083H92.173V17.6519H96.2772C96.3037 17.6519 96.3301 17.6254 96.3301 17.5989V15.7966C96.3301 15.7701 96.3037 15.7436 96.2772 15.7436H92.173V12.8016H97.8394C97.8659 12.8016 97.8924 12.7751 97.8924 12.7486V10.9463C97.8924 10.9198 97.8659 10.8933 97.8394 10.8933H90.0282V10.8668Z" fill="#C2CDE7"/>
<path d="M75.5178 20.8589C75.5178 20.9119 75.5178 20.9384 75.4913 20.9914L74.4321 22.4226C74.3527 22.5287 74.2203 22.6082 74.0614 22.6082H68.4479C66.8327 22.5817 65.3234 21.9721 64.2113 20.8324C63.0992 19.7192 62.4901 18.2085 62.4901 16.6182C62.4901 13.2522 65.1116 10.6282 68.5009 10.6282C71.8637 10.6282 74.5116 13.2522 74.5116 16.6182C74.5116 17.9964 73.982 19.3747 72.9758 20.4613L72.7375 20.7264L75.2794 20.6204C75.4383 20.6204 75.5178 20.7264 75.5178 20.8589ZM64.6879 16.6182C64.6879 18.8446 66.3561 20.6204 68.5009 20.6204C70.6456 20.6204 72.3138 18.8711 72.3138 16.6182C72.3138 14.3918 70.6456 12.6161 68.5009 12.6161C66.3561 12.6161 64.6879 14.3653 64.6879 16.6182Z" fill="#C2CDE7"/>
<path d="M43.2135 10.8933C43.2135 10.8668 43.187 10.8668 43.1606 10.8668H41.1217C41.0952 10.8668 41.0687 10.8933 41.0687 10.8933L36.1966 22.2636C36.1966 22.2901 36.1966 22.3166 36.1966 22.3166C36.1966 22.3431 36.2231 22.3431 36.2496 22.3431H38.3944C38.4208 22.3431 38.4473 22.3166 38.4473 22.2901L39.3476 20.0638H44.9082L45.8084 22.2901C45.8084 22.3166 45.8349 22.3431 45.8614 22.3431H47.9797C48.0062 22.3431 48.0327 22.3431 48.0327 22.3166C48.0327 22.2901 48.0592 22.2636 48.0327 22.2636L43.2135 10.8933ZM44.1403 18.1554H40.1155L42.1014 13.1991L44.1403 18.1554Z" fill="#C2CDE7"/>
</svg>
