<svg width="443" height="83" viewBox="0 0 443 83" fill="none" xmlns="http://www.w3.org/2000/svg">
<path fill-rule="evenodd" clip-rule="evenodd" d="M46.0428 63.702L55.5364 78.2536C57.4909 81.2486 60.8222 82.96 64.7104 82.96C68.5935 82.96 71.93 81.2487 73.8844 78.2583L106.218 28.7654L87.6066 0.00709381C73.7503 21.2387 59.894 42.4704 46.0377 63.702H46.0428Z" fill="#9675F1"/>
<path fill-rule="evenodd" clip-rule="evenodd" d="M41.2183 0L0 63.6994H38.9184L60.8503 30.0832L41.2183 0Z" fill="#9675F1"/>
<path d="M430.268 71.84V10.24H442.148V71.84H430.268Z" fill="#16152A"/>
<path d="M369.902 10.24H381.782V46.672C381.782 51.3653 383.043 55.0613 385.566 57.76C388.088 60.4 391.491 61.72 395.774 61.72C400.056 61.72 403.43 60.4 405.894 57.76C408.416 55.0613 409.678 51.3653 409.678 46.672V10.24H421.558V46.936C421.558 54.7386 419.211 60.9866 414.517 65.68C409.883 70.3733 403.635 72.72 395.774 72.72C387.854 72.72 381.547 70.3733 376.854 65.68C372.219 60.9866 369.902 54.7386 369.902 46.936V10.24Z" fill="#16152A"/>
<path d="M299.501 51.16C299.501 44.648 301.349 39.368 305.045 35.32C308.799 31.272 313.552 29.248 319.301 29.248C325.285 29.248 329.685 31.624 332.501 36.376V10.24H343.765V71.84H332.941V65.856C330.066 70.432 325.608 72.72 319.565 72.72C313.64 72.72 308.799 70.7547 305.045 66.824C301.349 62.8347 299.501 57.6133 299.501 51.16ZM332.941 51.16C332.941 47.5227 331.856 44.5893 329.685 42.36C327.573 40.072 324.962 38.928 321.853 38.928C318.685 38.928 316.045 40.0427 313.933 42.272C311.821 44.5013 310.765 47.464 310.765 51.16C310.765 54.7973 311.821 57.7013 313.933 59.872C316.045 62.0426 318.685 63.128 321.853 63.128C324.962 63.128 327.573 62.0426 329.685 59.872C331.856 57.6426 332.941 54.7387 332.941 51.16Z" fill="#16152A"/>
<path d="M252.469 50.984C252.469 44.7066 254.522 39.5146 258.629 35.408C262.736 31.3013 267.957 29.248 274.293 29.248C280.629 29.248 285.85 31.3013 289.957 35.408C294.064 39.5146 296.117 44.7066 296.117 50.984C296.117 57.2026 294.034 62.3946 289.869 66.56C285.762 70.6666 280.57 72.72 274.293 72.72C268.016 72.72 262.794 70.6666 258.629 66.56C254.522 62.3946 252.469 57.2026 252.469 50.984ZM282.037 59.432C284.09 57.2613 285.117 54.4453 285.117 50.984C285.117 47.5226 284.09 44.736 282.037 42.624C280.042 40.4533 277.461 39.368 274.293 39.368C271.125 39.368 268.514 40.4533 266.461 42.624C264.466 44.736 263.469 47.5226 263.469 50.984C263.469 54.4453 264.466 57.2613 266.461 59.432C268.514 61.544 271.125 62.6 274.293 62.6C277.461 62.6 280.042 61.544 282.037 59.432Z" fill="#16152A"/>
<path d="M205.437 50.984C205.437 44.7066 207.49 39.5146 211.597 35.408C215.704 31.3013 220.925 29.248 227.261 29.248C233.597 29.248 238.818 31.3013 242.925 35.408C247.032 39.5146 249.085 44.7066 249.085 50.984C249.085 57.2026 247.002 62.3946 242.837 66.56C238.73 70.6666 233.538 72.72 227.261 72.72C220.984 72.72 215.762 70.6666 211.597 66.56C207.49 62.3946 205.437 57.2026 205.437 50.984ZM235.005 59.432C237.058 57.2613 238.085 54.4453 238.085 50.984C238.085 47.5226 237.058 44.736 235.005 42.624C233.01 40.4533 230.429 39.368 227.261 39.368C224.093 39.368 221.482 40.4533 219.429 42.624C217.434 44.736 216.437 47.5226 216.437 50.984C216.437 54.4453 217.434 57.2613 219.429 59.432C221.482 61.544 224.093 62.6 227.261 62.6C230.429 62.6 233.01 61.544 235.005 59.432Z" fill="#16152A"/>
<path d="M199.138 71.84H187.258V16.576L171.242 71.84H153.202L137.098 16.576V71.84H125.218V10.24H147.042L162.178 63.04L177.402 10.24H199.138V71.84Z" fill="#16152A"/>
</svg>
