<svg width="412" height="83" viewBox="0 0 412 83" fill="none" xmlns="http://www.w3.org/2000/svg">
<path d="M399.067 31.34H410.587V74H399.067V31.34ZM398.707 24.95V12.8H411.037V24.95H398.707Z" fill="#0D0A35"/>
<path d="M380.233 31.34H391.663V74H380.233V67.7C379.093 69.92 377.383 71.69 375.103 73.01C372.883 74.27 370.273 74.9 367.273 74.9C362.293 74.9 358.363 73.49 355.483 70.67C352.603 67.79 351.163 63.71 351.163 58.43V31.34H362.683V55.55C362.683 58.61 363.343 60.95 364.663 62.57C366.043 64.19 367.993 65 370.513 65C373.573 65 375.943 63.95 377.623 61.85C379.363 59.75 380.233 56.9 380.233 53.3V31.34Z" fill="#0D0A35"/>
<path d="M300.544 52.85C300.544 46.19 302.434 40.79 306.214 36.65C310.054 32.51 314.914 30.44 320.794 30.44C326.914 30.44 331.414 32.87 334.294 37.73V11H345.814V74H334.744V67.88C331.804 72.56 327.244 74.9 321.064 74.9C315.004 74.9 310.054 72.89 306.214 68.87C302.434 64.79 300.544 59.45 300.544 52.85ZM334.744 52.85C334.744 49.13 333.634 46.13 331.414 43.85C329.254 41.51 326.584 40.34 323.404 40.34C320.164 40.34 317.464 41.48 315.304 43.76C313.144 46.04 312.064 49.07 312.064 52.85C312.064 56.57 313.144 59.54 315.304 61.76C317.464 63.98 320.164 65.09 323.404 65.09C326.584 65.09 329.254 63.98 331.414 61.76C333.634 59.48 334.744 56.51 334.744 52.85Z" fill="#0D0A35"/>
<path d="M253.344 52.67C253.344 46.25 255.444 40.94 259.644 36.74C263.844 32.54 269.184 30.44 275.664 30.44C282.144 30.44 287.484 32.54 291.684 36.74C295.884 40.94 297.984 46.25 297.984 52.67C297.984 59.03 295.854 64.34 291.594 68.6C287.394 72.8 282.084 74.9 275.664 74.9C269.244 74.9 263.904 72.8 259.644 68.6C255.444 64.34 253.344 59.03 253.344 52.67ZM283.584 61.31C285.684 59.09 286.734 56.21 286.734 52.67C286.734 49.13 285.684 46.28 283.584 44.12C281.544 41.9 278.904 40.79 275.664 40.79C272.424 40.79 269.754 41.9 267.654 44.12C265.614 46.28 264.594 49.13 264.594 52.67C264.594 56.21 265.614 59.09 267.654 61.31C269.754 63.47 272.424 64.55 275.664 64.55C278.904 64.55 281.544 63.47 283.584 61.31Z" fill="#0D0A35"/>
<path d="M206.143 52.67C206.143 46.25 208.243 40.94 212.443 36.74C216.643 32.54 221.983 30.44 228.463 30.44C234.943 30.44 240.283 32.54 244.483 36.74C248.683 40.94 250.783 46.25 250.783 52.67C250.783 59.03 248.653 64.34 244.393 68.6C240.193 72.8 234.883 74.9 228.463 74.9C222.043 74.9 216.703 72.8 212.443 68.6C208.243 64.34 206.143 59.03 206.143 52.67ZM236.383 61.31C238.483 59.09 239.533 56.21 239.533 52.67C239.533 49.13 238.483 46.28 236.383 44.12C234.343 41.9 231.703 40.79 228.463 40.79C225.223 40.79 222.553 41.9 220.453 44.12C218.413 46.28 217.393 49.13 217.393 52.67C217.393 56.21 218.413 59.09 220.453 61.31C222.553 63.47 225.223 64.55 228.463 64.55C231.703 64.55 234.343 63.47 236.383 61.31Z" fill="#0D0A35"/>
<path d="M200.6 74H188.45V17.48L172.07 74H153.62L137.15 17.48V74H125V11H147.32L162.8 65L178.37 11H200.6V74Z" fill="#0D0A35"/>
<path fill-rule="evenodd" clip-rule="evenodd" d="M46.0428 63.702L55.5365 78.2536C57.4909 81.2485 60.8222 82.9599 64.7104 82.9599C68.5935 82.9599 71.93 81.2487 73.8844 78.2583L106.218 28.7653L87.6066 0.00708008C73.7503 21.2387 59.894 42.4704 46.0377 63.702H46.0428Z" fill="#9675F1"/>
<path fill-rule="evenodd" clip-rule="evenodd" d="M41.2184 0L32.2043 13.9304L7.89165e-05 63.6994H38.9184L60.8503 30.0832L41.2184 0Z" fill="#9675F1"/>
</svg>
